<?xml version="1.0" encoding="utf-8"?>
<!-- Generator: Adobe Illustrator 25.4.1, SVG Export Plug-In . SVG Version: 6.00 Build 0)  -->
<svg version="1.1" id="Layer_1" xmlns="http://www.w3.org/2000/svg" xmlns:xlink="http://www.w3.org/1999/xlink" x="0px" y="0px"
	 viewBox="0 0 1322.4 263" style="enable-background:new 0 0 1322.4 263;" xml:space="preserve">
<style type="text/css">
	.st0{fill:#FF00FF;}
	.st1{font-family:'MarkerFelt-Wide';}
	.st2{font-size:271.5786px;}
	.st3{letter-spacing:4.5;}
	.st4{fill:none;stroke:#000000;stroke-width:4;stroke-miterlimit:10;}
	.st5{letter-spacing:13.4;}
	.st6{letter-spacing:7.4;}
	.st7{letter-spacing:10.4;}
</style>
<text transform="matrix(0.6715 0 0 1 8.0161 229.9863)" class="st0 st1 st2 st3">K</text>
<text transform="matrix(0.6715 0 0 1 8.0161 229.9863)" class="st4 st1 st2 st3">K</text>
<text transform="matrix(0.6715 0 0 1 115.9727 229.9863)" class="st0 st1 st2 st5">A</text>
<text transform="matrix(0.6715 0 0 1 115.9727 229.9863)" class="st4 st1 st2 st5">A</text>
<text transform="matrix(0.6715 0 0 1 244.7153 229.9863)" class="st0 st1 st2 st6">N</text>
<text transform="matrix(0.6715 0 0 1 244.7153 229.9863)" class="st4 st1 st2 st6">N</text>
<text transform="matrix(0.6715 0 0 1 362.7017 229.9863)" class="st0 st1 st2 st7">A</text>
<text transform="matrix(0.6715 0 0 1 362.7017 229.9863)" class="st4 st1 st2 st7">A</text>
<text transform="matrix(0.6715 0 0 1 489.9912 229.9863)" class="st0 st1 st2 st5">A</text>
<text transform="matrix(0.6715 0 0 1 489.9912 229.9863)" class="st4 st1 st2 st5">A</text>
<text transform="matrix(0.6715 0 0 1 618.7339 229.9863)" class="st0 st1 st2">N CO</text>
<text transform="matrix(0.6715 0 0 1 618.7339 229.9863)" class="st4 st1 st2">N CO</text>
<text transform="matrix(0.6715 0 0 1 990.7524 229.9863)" class="st0 st1 st2 st6">D</text>
<text transform="matrix(0.6715 0 0 1 990.7524 229.9863)" class="st4 st1 st2 st6">D</text>
<text transform="matrix(0.6715 0 0 1 1095.2446 229.9863)" class="st0 st1 st2">E</text>
<text transform="matrix(0.6715 0 0 1 1095.2446 229.9863)" class="st4 st1 st2">E</text>
<text transform="matrix(0.6715 0 0 1 1182.7769 229.9863)" class="st0 st1 st2 st6">S</text>
<text transform="matrix(0.6715 0 0 1 1182.7769 229.9863)" class="st4 st1 st2 st6">S</text>
<text transform="matrix(0.6715 0 0 1 1280.8892 229.9863)" class="st0 st1 st2">!</text>
<text transform="matrix(0.6715 0 0 1 1280.8892 229.9863)" class="st4 st1 st2">!</text>
</svg>
